HIERARCHY
ROOT root
{
	OFFSET 0.000000 0.000000 0.000000
	CHANNELS 6 Xposition Yposition Zposition Zrotation Yrotation Xrotation
	JOINT lhip
	{
		OFFSET 0.058581 -0.082280 -0.017664
		CHANNELS 3 Zrotation Yrotation Xrotation
		JOINT lknee
		{
			OFFSET 0.043451 -0.386469 0.008037
			CHANNELS 3 Zrotation Yrotation Xrotation
			JOINT lankle
			{
				OFFSET -0.014790 -0.426874 -0.037428
				CHANNELS 3 Zrotation Yrotation Xrotation
				JOINT ltoe
				{
					OFFSET 0.041054 -0.060286 0.122042
					CHANNELS 3 Zrotation Yrotation Xrotation
					End Site
					{
						OFFSET 0.000000 0.000000 0.000000
					}
				}
			}
		}
	}
	JOINT rhip
	{
		OFFSET -0.060310 -0.090513 -0.013543
		CHANNELS 3 Zrotation Yrotation Xrotation
		JOINT rknee
		{
			OFFSET -0.043257 -0.383688 -0.004843
			CHANNELS 3 Zrotation Yrotation Xrotation
			JOINT rankle
			{
				OFFSET 0.019056 -0.420046 -0.034562
				CHANNELS 3 Zrotation Yrotation Xrotation
				JOINT rtoe
				{
					OFFSET -0.034840 -0.062106 0.130323
					CHANNELS 3 Zrotation Yrotation Xrotation
					End Site
					{
						OFFSET 0.000000 0.000000 0.000000
					}
				}
			}
		}
	}
	JOINT lowerback
	{
		OFFSET 0.004439 0.124404 -0.038385
		CHANNELS 3 Zrotation Yrotation Xrotation
		JOINT upperback
		{
			OFFSET 0.004488 0.137956 0.026820
			CHANNELS 3 Zrotation Yrotation Xrotation
			JOINT chest
			{
				OFFSET -0.002265 0.056032 0.002855
				CHANNELS 3 Zrotation Yrotation Xrotation
				JOINT lowerneck
				{
					OFFSET -0.013390 0.211636 -0.033468
					CHANNELS 3 Zrotation Yrotation Xrotation
					JOINT upperneck
					{
						OFFSET 0.010113 0.088937 0.050410
						CHANNELS 3 Zrotation Yrotation Xrotation
						End Site
						{
							OFFSET 0.000000 0.000000 0.000000
						}
					}
				}
				JOINT lclavicle
				{
					OFFSET 0.071702 0.114000 -0.018898
					CHANNELS 3 Zrotation Yrotation Xrotation
					JOINT lshoulder
					{
						OFFSET 0.122921 0.045205 -0.019046
						CHANNELS 3 Zrotation Yrotation Xrotation
						JOINT lelbow
						{
							OFFSET 0.255332 -0.015649 -0.022946
							CHANNELS 3 Zrotation Yrotation Xrotation
							JOINT lwrist
							{
								OFFSET 0.265709 0.012698 -0.007375
								CHANNELS 3 Zrotation Yrotation Xrotation
								End Site
								{
									OFFSET 0.000000 0.000000 0.000000
								}
							}
						}
					}
				}
				JOINT rclavicle
				{
					OFFSET -0.082954 0.112472 -0.023707
					CHANNELS 3 Zrotation Yrotation Xrotation
					JOINT rshoulder
					{
						OFFSET -0.113228 0.046853 -0.008472
						CHANNELS 3 Zrotation Yrotation Xrotation
						JOINT relbow
						{
							OFFSET -0.260127 -0.014369 -0.031269
							CHANNELS 3 Zrotation Yrotation Xrotation
							JOINT rwrist
							{
								OFFSET -0.269108 0.006794 -0.006027
								CHANNELS 3 Zrotation Yrotation Xrotation
								End Site
								{
									OFFSET 0.000000 0.000000 0.000000
								}
							}
						}
					}
				}
			}
		}
	}
}
MOTION
Frames: 14
Frame Time: 0.033333
0.047824 -1.720325 0.974629 -159.267118 2.069571 89.511302 -2.762807 3.433836 2.431550 -3.521639 -8.110050 -8.346565 8.355414 13.644599 -13.942577 0.000000 -0.000000 0.000000 -10.439927 -2.821262 -15.257695 -1.894956 -7.146701 27.634911 4.413540 -13.706429 -17.991769 0.000000 -0.000000 0.000000 -2.384241 -0.646053 10.441706 -0.005444 -0.463211 0.976694 -0.083357 0.609196 -7.334444 -2.942929 6.577402 6.350810 1.532983 9.257651 10.919313 -24.412370 0.344606 -0.382984 -50.091525 -5.760927 6.963245 19.992924 -18.172284 -18.399717 3.342232 -3.164117 -5.220005 24.515478 6.381750 3.568384 52.060317 10.835676 12.200350 -7.066264 22.139860 -5.839510 5.178060 5.126388 1.953061 
0.047318 -1.719336 0.974638 -159.563843 2.113476 89.549689 -2.619462 3.582042 2.062654 -3.805001 -7.764804 -7.498455 8.108753 13.679841 -14.586732 0.000000 -0.000000 0.000000 -10.363619 -2.953892 -15.359294 -2.117778 -7.198093 27.712382 4.264915 -13.172749 -17.906700 0.000000 -0.000000 0.000000 -2.188123 -0.473602 10.367998 -0.128748 -0.459047 0.885236 -0.125130 0.538187 -7.276923 -2.777148 6.609829 6.537711 1.533907 8.961729 10.732062 -24.553875 0.277626 -0.240435 -49.959452 -5.655364 6.850319 19.782591 -18.200205 -18.138511 3.603819 -3.428587 -5.108877 24.783119 6.503191 3.671341 51.626362 11.011627 11.685238 -7.183856 21.860424 -5.985081 4.447979 5.484762 2.723703 
0.046669 -1.717999 0.974226 -159.887761 2.084783 89.406717 -2.544632 3.330397 1.791806 -4.234838 -7.256809 -6.409828 8.046258 13.997222 -15.536799 0.000000 -0.000000 0.000000 -10.362912 -3.080304 -15.425119 -2.246303 -7.234615 28.088680 4.213155 -13.058514 -18.216771 0.000000 -0.000000 0.000000 -2.041509 -0.452847 10.597574 -0.300273 -0.487121 0.581018 -0.251433 0.555438 -7.130397 -2.482749 6.513974 6.906915 1.658934 8.813553 10.615572 -24.458318 0.446118 -0.326616 -49.970133 -5.619260 6.780966 19.481032 -18.302126 -17.716327 4.001916 -3.471836 -5.404581 24.570360 6.423515 3.656227 51.924510 11.213130 11.430616 -7.068426 21.394999 -6.069445 3.459177 5.269266 2.425914 
0.046005 -1.715779 0.973577 -160.618482 1.927824 89.135225 -2.497053 3.039671 1.873288 -4.870963 -7.051130 -5.424274 8.020335 14.297544 -16.896104 0.000000 -0.000000 0.000000 -10.185172 -4.121605 -16.110727 -3.017212 -7.862033 29.378876 4.187133 -13.607441 -19.518420 0.000000 -0.000000 0.000000 -2.206619 -0.217170 10.656881 -0.340696 -0.444839 0.559222 -0.327890 0.491304 -6.917572 -2.307783 6.629530 6.519120 1.800357 8.585064 11.004425 -24.400085 0.562513 -0.640104 -49.819881 -5.530256 6.607547 19.321394 -18.220812 -17.667879 3.539318 -3.680414 -5.221000 24.660392 6.450867 3.470764 51.696455 11.201750 11.203388 -7.113714 21.342792 -5.733924 3.852472 5.894630 3.314328 
0.045498 -1.714723 0.973371 -160.856055 1.928503 88.973802 -2.427608 3.029381 2.089538 -5.003803 -7.016846 -5.196780 8.007079 14.370048 -17.129704 0.000000 -0.000000 0.000000 -10.153605 -4.114409 -16.412554 -3.225675 -7.920265 30.333423 4.155318 -13.622632 -19.385679 0.000000 -0.000000 0.000000 -2.177895 -0.243220 10.604237 -0.352568 -0.391246 0.684248 -0.420991 0.544665 -6.906139 -2.217096 6.645543 6.522661 1.791966 8.477369 11.138025 -24.399153 0.490613 -0.610535 -49.719123 -5.504768 6.580371 19.380909 -18.199329 -17.802312 3.580335 -3.623970 -5.114569 24.653042 6.520664 3.478750 51.689219 11.030607 11.223240 -7.101012 21.409922 -5.757375 3.948355 5.955333 3.228816 
0.044627 -1.712530 0.973042 -161.278716 1.935890 88.654307 -2.218617 3.319663 2.610191 -5.298650 -7.075664 -5.009673 8.043579 14.707025 -17.865765 0.000000 -0.000000 0.000000 -9.994330 -4.057876 -17.388079 -3.662905 -8.237810 32.956110 4.092189 -14.162866 -18.985279 0.000000 -0.000000 0.000000 -2.280335 -0.447308 10.654887 -0.293225 -0.235455 0.736867 -0.543591 0.596665 -6.771787 -1.956850 6.680541 6.521472 1.837811 8.464313 11.374040 -24.440517 0.511796 -0.641049 -49.429447 -5.442600 6.503794 19.474882 -18.308501 -18.130376 3.730351 -3.544151 -4.991871 24.777937 6.602583 3.317880 51.586071 10.693375 11.356328 -6.983548 21.314387 -5.581822 4.483901 5.905613 3.024428 
0.043758 -1.710007 0.972768 -161.738214 1.906234 88.286535 -1.990508 3.674576 3.422085 -5.614797 -7.286241 -5.183144 8.154988 14.782817 -18.045750 0.000000 -0.000000 0.000000 -9.880732 -4.531370 -18.936763 -4.327251 -9.164318 36.550829 3.891113 -14.723228 -18.090626 0.000000 -0.000000 0.000000 -2.552426 -0.680880 10.784995 -0.162768 -0.058286 0.890536 -0.552408 0.605979 -6.792048 -1.666945 6.728932 6.970364 1.943568 8.275339 11.181991 -24.440521 0.561104 -0.608336 -49.244949 -5.385551 6.346757 19.460130 -18.332888 -18.511315 4.059248 -3.449042 -4.872343 24.989526 6.599657 3.504277 51.320333 10.584639 11.227392 -7.012829 21.400865 -5.583978 4.280937 5.749675 3.165045 
0.043337 -1.707283 0.972736 -162.291403 1.904164 87.867023 -1.844312 3.898242 4.487404 -5.649328 -7.409769 -5.676993 8.435201 15.106958 -17.986413 0.000000 -0.000000 0.000000 -9.578417 -5.221945 -20.884070 -5.306361 -10.514363 40.764723 3.447258 -15.829658 -17.012562 0.000000 -0.000000 0.000000 -2.737907 -0.961535 11.372672 -0.155975 0.170864 0.686812 -0.590520 0.542015 -6.846590 -1.440484 6.944259 7.076446 2.101129 8.360289 11.131253 -24.242943 0.702889 -0.576232 -49.165663 -5.219895 6.317405 19.511615 -18.395207 -18.814728 3.785385 -3.246247 -5.140389 25.039013 6.619265 3.654804 51.487657 10.231135 11.334628 -7.058029 21.510400 -5.538863 4.553347 5.411290 2.200137 
0.042677 -1.703682 0.973351 -162.669861 2.045485 87.342658 -1.464854 4.387262 5.903269 -5.647561 -7.766034 -6.515164 8.249887 15.376802 -18.154760 0.000000 -0.000000 0.000000 -9.368225 -5.333383 -22.353109 -5.987644 -13.312911 44.305609 2.706648 -17.486999 -16.421200 0.000000 -0.000000 0.000000 -2.693339 -1.559175 12.257969 -0.228021 0.494729 0.358472 -0.611122 0.375053 -7.020765 -1.390831 7.173839 7.234838 2.227959 8.527922 11.100608 -24.259936 0.810943 -0.341711 -48.828325 -4.978168 5.895928 19.414989 -18.460758 -18.890134 4.224927 -3.186940 -5.214541 25.291489 6.685916 3.467033 51.434486 9.838512 11.094867 -6.883974 21.533214 -5.302444 3.880722 5.807190 2.277986 
0.042365 -1.699825 0.973276 -163.088938 2.270547 86.977125 -0.907793 4.956750 7.012472 -5.706292 -7.934034 -7.202179 7.734339 15.274971 -18.217917 0.000000 -0.000000 0.000000 -8.739038 -5.225739 -23.745827 -5.804815 -15.838280 45.590017 2.518515 -17.881564 -17.070084 0.000000 -0.000000 0.000000 -2.715519 -1.932675 12.727726 -0.233241 0.896839 0.246569 -0.430868 0.187293 -6.959692 -1.039583 7.291523 7.275424 2.147044 7.877346 10.898520 -24.306215 0.418646 0.193178 -48.860389 -5.107962 5.363129 19.683458 -18.057497 -19.139715 4.356024 -2.945826 -5.300286 25.294399 6.780756 3.501904 51.640151 9.627466 10.696080 -7.013515 21.388948 -5.226501 3.846695 5.758738 2.004066 
0.042312 -1.696048 0.973863 -163.828097 2.330404 87.015922 -0.575474 5.495733 7.607203 -5.801145 -7.830297 -7.653554 7.613973 15.130708 -18.352158 0.000000 -0.000000 0.000000 -7.918246 -6.208329 -25.955664 -4.197455 -16.513575 45.380079 2.556980 -16.215285 -17.335847 0.000000 -0.000000 0.000000 -2.562544 -2.121498 13.276883 -0.375246 0.866923 0.019821 -0.517137 0.129419 -7.188050 -1.274525 7.860202 7.193635 2.155678 8.096827 10.435761 -24.262213 0.584101 -0.109979 -48.821169 -4.702442 5.241906 19.868810 -17.865328 -18.972766 4.414706 -2.504221 -5.041717 25.507409 6.683370 3.575943 51.735507 9.457700 10.504324 -6.824559 21.474145 -4.926565 4.242836 5.493434 2.051661 
0.042473 -1.691160 0.973955 -164.492406 2.185093 86.987854 -0.479140 6.007240 8.258291 -5.952456 -7.997684 -7.753969 7.467601 15.129355 -18.397813 0.000000 -0.000000 0.000000 -7.137074 -6.700559 -28.237117 -2.944051 -16.754736 44.218611 2.799364 -15.926594 -17.158227 0.000000 -0.000000 0.000000 -2.876489 -2.254192 13.658223 -0.361400 1.038563 0.055540 -0.411405 -0.014595 -7.303620 -1.398066 8.100169 6.693921 2.352258 7.906148 10.063868 -24.110200 0.670119 -0.085582 -49.100050 -4.943196 5.194293 20.116312 -17.250885 -19.192512 4.219078 -2.509165 -4.923201 25.455433 6.523334 3.586720 51.907883 9.306056 10.588019 -6.855901 21.676287 -4.578539 4.967755 5.182392 1.730489 
0.042005 -1.685098 0.973379 -164.751059 2.091286 86.802756 -0.638967 6.035270 9.078118 -5.582351 -8.331415 -7.978360 7.316367 15.391663 -18.577538 0.000000 -0.000000 0.000000 -6.642642 -5.464064 -29.755835 -2.028454 -17.062612 41.339197 2.435824 -16.217750 -16.967794 0.000000 -0.000000 0.000000 -3.000608 -2.804651 13.986471 -0.335050 1.245191 0.037209 -0.365976 -0.138029 -6.877549 -1.560912 8.022207 5.992563 2.112700 7.768515 9.763293 -24.111613 0.654565 0.052194 -49.249009 -5.322233 5.130364 20.023595 -17.133694 -19.696599 4.769079 -2.689963 -5.114185 25.283467 6.404328 3.485589 52.080135 9.508812 10.562021 -6.722893 21.487250 -4.611236 4.526300 5.365990 1.853605 
0.042120 -1.678810 0.973154 -165.136668 2.125118 86.920109 -0.583802 6.302570 9.303333 -5.290311 -8.244441 -7.744042 7.024569 15.548776 -19.067428 0.000000 -0.000000 0.000000 -6.121789 -4.842271 -31.530224 -1.257471 -17.109037 37.598182 2.398660 -15.904906 -15.412727 0.000000 -0.000000 0.000000 -3.016580 -3.113258 14.033514 -0.207944 1.309986 0.366313 -0.317772 -0.121213 -6.929492 -1.804851 8.061444 5.744497 2.227047 7.542441 9.223277 -24.207519 0.562641 0.178149 -49.550357 -5.835772 5.353437 20.229858 -16.615135 -20.234833 4.705194 -3.052668 -5.075172 25.252955 6.466362 3.574861 52.191317 9.428119 10.479722 -6.915514 21.229355 -5.003679 4.328465 5.513265 1.681832 
